<svg width="32" height="32" viewBox="0 0 32 32" fill="none" xmlns="http://www.w3.org/2000/svg">
  <!-- Modern geometric "G" with network nodes -->
  <rect width="32" height="32" rx="6" fill="url(#bgGradient)"/>
  
  <!-- Stylized "G" -->
  <path d="M 16 8 C 11 8 8 11 8 16 C 8 21 11 24 16 24 C 19 24 21 22.5 22 21 L 22 17 L 16 17 L 16 19 L 20 19 C 19.5 20.5 18 22 16 22 C 12 22 10 19.5 10 16 C 10 12.5 12 10 16 10 C 18 10 19.5 11 20.5 12.5 L 22.5 11 C 21 9 19 8 16 8 Z" fill="white"/>
  
  <!-- Network dots -->
  <circle cx="8" cy="8" r="1.5" fill="#fbbf24" opacity="0.8"/>
  <circle cx="24" cy="8" r="1.5" fill="#fbbf24" opacity="0.8"/>
  <circle cx="24" cy="24" r="1.5" fill="#fbbf24" opacity="0.8"/>
  
  <defs>
    <linearGradient id="bgGradient" x1="0" y1="0" x2="32" y2="32">
      <stop offset="0%" style="stop-color:#6366f1"/>
      <stop offset="100%" style="stop-color:#8b5cf6"/>
    </linearGradient>
  </defs>
</svg>
